# xmcd
#
# Track frame offsets:
#	150
#	12950
#	28100
#	45425
#	57575
#	70700
#	88700
#	104750
#	117050
#	131675
#	148925
#	166100
#	180350
#	195425
#
# Disc length: 2826 seconds
#
# Revision: 1
# Processed by: cddbd v1.5.2PL0 Copyright (c) Steve Scherf et al.
# Submitted via: audiograbber 1.82.02
#
DISCID=bc0b080e
DTITLE=Paul McCloud - A Gospel Christmas
DYEAR=1986
DGENRE=Country
TTITLE0=Pretty Paper
TTITLE1=Still Fells Like Christmas Time To Me
TTITLE2=A Cross And A Manger
TTITLE3=Let's Put Christ Into Christmas
TTITLE4=Away In A Manger
TTITLE5=My Forever Friend
TTITLE6=Sotfly And Tenderly
TTITLE7=When A Child Is Born
TTITLE8=In The Garden
TTITLE9=Silent Night
TTITLE10=The Christmas Tree
TTITLE11=Whispering Hope
TTITLE12=Come Follow Me
TTITLE13=Oh Come All Ye Faithful
EXTD=
EXTT0=
EXTT1=
EXTT2=
EXTT3=
EXTT4=
EXTT5=
EXTT6=
EXTT7=
EXTT8=
EXTT9=
EXTT10=
EXTT11=
EXTT12=
EXTT13=
PLAYORDER=
